<!DOCTYPE svg PUBLIC "-//W3C//DTD SVG 20010904//EN" "http://www.w3.org/TR/2001/REC-SVG-20010904/DTD/svg10.dtd">
<svg version="1.0" xmlns="http://www.w3.org/2000/svg" width="250px" height="225px" viewBox="0 0 2500 2250" preserveAspectRatio="xMidYMid meet">
<g id="layer101" fill="#08277c" stroke="none">
 <path d="M1426 1955 c-52 -256 -94 -398 -122 -409 -38 -15 -60 21 -138 222 -57 146 -85 206 -86 185 -1 -32 -19 -8 -38 50 -35 103 -25 38 28 -185 28 -116 49 -215 47 -222 -2 -6 -10 1 -19 14 -65 108 -78 124 -78 103 0 -41 -16 -24 -53 55 -48 102 -47 81 4 -49 73 -187 104 -289 89 -289 -13 0 -97 70 -201 166 -53 50 -115 105 -138 123 l-42 33 23 -37 c13 -20 31 -51 41 -68 l18 -32 -33 36 c-18 20 -64 65 -103 100 l-69 64 44 -55 c25 -30 87 -104 139 -165 169 -199 260 -332 245 -357 -7 -12 -137 -10 -231 3 -77 11 -83 11 -111 -10 -17 -11 -38 -21 -49 -22 -10 0 -13 -3 -7 -5 7 -3 9 -32 6 -82 -7 -130 21 -162 144 -162 56 0 68 4 89 25 16 15 25 35 25 56 l0 33 31 -30 c48 -45 62 -80 57 -139 -8 -95 -82 -210 -315 -487 -68 -81 -137 -167 -153 -190 -16 -24 -52 -67 -79 -97 -28 -30 -51 -56 -51 -58 0 -12 50 30 170 143 321 302 442 402 540 448 104 49 156 26 198 -86 17 -46 46 -166 56 -232 5 -35 16 -26 16 11 0 23 5 43 11 45 19 6 29 89 22 191 -4 66 -2 97 5 97 6 0 13 -13 17 -30 4 -16 10 -32 15 -35 5 -3 5 9 0 27 -9 30 -5 56 4 27 46 -145 71 -216 83 -238 l14 -26 -6 34 c-5 22 -3 36 5 41 10 6 10 33 1 122 -15 154 -15 148 15 148 52 0 194 -88 442 -273 73 -55 136 -96 139 -93 4 4 -6 16 -22 29 -16 12 -42 34 -56 50 -15 15 -31 27 -37 27 -5 0 -12 7 -15 14 -7 17 10 12 61 -17 17 -10 32 -15 32 -11 0 5 -80 88 -177 184 -165 162 -176 175 -150 178 l27 3 0 90 c0 88 0 89 25 89 22 0 25 -4 25 -35 0 -35 0 -35 45 -35 l45 0 0 44 c0 40 11 56 36 56 2 0 4 -47 4 -105 l0 -105 50 0 49 0 3 108 3 107 28 -52 c27 -52 28 -53 72 -53 25 0 45 5 45 11 0 6 -14 36 -32 68 l-32 58 42 65 c23 35 42 68 42 72 0 4 -23 6 -52 4 -52 -3 -53 -4 -83 -56 l-30 -54 -3 56 -3 56 -49 0 -50 0 0 -50 c0 -43 -3 -50 -20 -50 -17 0 -20 7 -20 50 l0 50 -45 0 c-41 0 -45 -2 -45 -24 0 -39 -10 -54 -31 -49 -14 4 -19 14 -19 39 0 34 -1 34 -45 34 l-45 0 0 38 c1 86 71 204 310 523 83 111 163 220 177 243 15 24 -75 -60 -224 -209 -268 -270 -300 -299 -351 -324 -32 -15 -35 -15 -48 4 -19 25 -18 70 6 259 23 184 24 216 9 216 -6 0 -9 -9 -6 -20 3 -11 2 -18 -2 -16 -3 2 -19 -43 -35 -100 -27 -101 -46 -133 -46 -76 1 15 5 72 9 127 5 55 5 120 2 145 -6 42 -8 36 -35 -95z m-137 -704 c11 -7 11 -10 -1 -17 -32 -19 -48 -75 -48 -166 0 -81 -2 -88 -20 -88 -19 0 -20 7 -20 124 0 68 3 131 6 140 7 17 59 22 83 7z m141 -136 c0 -128 -1 -135 -20 -135 -18 0 -20 7 -20 89 0 53 -6 105 -15 131 -8 23 -15 44 -15 46 0 2 16 4 35 4 l35 0 0 -135z m-605 -29 c19 -15 18 -15 -22 -16 -31 0 -43 -4 -43 -15 0 -16 -43 -31 -59 -20 -6 3 -11 33 -11 66 l0 59 58 -29 c31 -16 66 -36 77 -45z m832 -143 c-3 -10 -5 -2 -5 17 0 19 2 27 5 18 2 -10 2 -26 0 -35z"/>
 <path d="M20 1155 l0 -195 45 0 c35 0 45 4 45 17 0 15 1 15 18 0 30 -27 107 -23 137 8 22 22 25 32 25 105 0 90 -16 134 -52 144 -40 10 -83 7 -106 -10 l-22 -15 0 70 0 71 -45 0 -45 0 0 -195z m172 -9 c4 -6 8 -30 8 -53 0 -46 -24 -69 -60 -58 -36 11 -38 120 -2 128 21 4 45 -3 54 -17z"/>
 <path d="M377 1233 c-3 -5 -19 -60 -36 -123 -18 -63 -34 -123 -37 -132 -5 -16 2 -18 45 -18 l50 0 23 103 24 102 20 -100 19 -100 48 -3 c33 -2 47 1 47 10 0 7 -14 70 -31 140 l-31 128 -68 0 c-38 0 -71 -3 -73 -7z"/>
 <path d="M2254 1217 c-23 -20 -28 -34 -32 -85 -10 -138 22 -176 142 -170 60 3 71 7 92 31 18 22 24 40 24 78 l0 49 -85 0 c-84 0 -91 3 -79 34 8 21 70 22 78 1 3 -10 19 -15 46 -15 38 0 40 2 40 29 0 49 -39 71 -126 71 -62 0 -77 -3 -100 -23z m134 -169 c-7 -20 -64 -22 -71 -4 -5 13 2 16 34 16 28 0 39 -4 37 -12z"/>
 <path d="M1800 885 c0 -35 0 -35 45 -35 45 0 45 0 45 35 0 35 0 35 -45 35 -45 0 -45 0 -45 -35z"/>
 </g>
<g id="layer102" fill="#704e50" stroke="none">
 <path d="M1426 1955 c-52 -256 -94 -398 -122 -409 -38 -15 -60 21 -138 222 -57 146 -85 206 -86 185 -1 -32 -19 -8 -38 50 -35 103 -25 38 28 -185 28 -116 49 -215 47 -222 -2 -6 -10 1 -19 14 -65 108 -78 124 -78 103 0 -41 -16 -24 -53 55 -48 102 -47 81 4 -49 73 -187 104 -289 89 -289 -13 0 -97 70 -201 166 -53 50 -115 105 -138 123 l-42 33 23 -37 c13 -20 31 -51 41 -68 l18 -32 -33 36 c-18 20 -64 65 -103 100 l-69 64 44 -55 c25 -30 87 -104 139 -165 169 -199 260 -332 245 -357 -3 -4 -44 -8 -91 -8 -83 0 -85 -1 -70 -18 10 -10 17 -22 17 -25 0 -10 -44 -9 -137 4 -73 11 -82 14 -71 28 10 13 10 14 -2 4 -8 -7 -22 -13 -32 -13 -16 0 -17 -2 -6 -14 7 -8 17 -12 21 -9 5 3 21 -1 38 -7 28 -12 29 -15 29 -76 0 -34 3 -65 8 -67 4 -3 5 24 4 60 l-4 64 54 -27 c29 -15 64 -34 78 -43 l24 -16 -44 -6 -45 -7 52 1 c43 1 58 -4 79 -24 42 -39 57 -76 52 -134 -8 -95 -82 -210 -315 -487 -68 -81 -137 -167 -153 -190 -16 -24 -52 -67 -79 -97 -28 -30 -51 -56 -51 -58 0 -12 50 30 170 143 321 302 442 402 540 448 104 49 156 26 198 -86 17 -46 46 -166 56 -232 5 -35 16 -26 16 11 0 23 5 43 11 45 19 6 29 89 22 191 -4 66 -2 97 5 97 6 0 13 -13 17 -30 4 -16 10 -32 15 -35 5 -3 5 9 0 27 -9 30 -5 56 4 27 46 -145 71 -216 83 -238 l14 -26 -6 34 c-5 22 -3 36 5 41 10 6 10 33 1 122 -15 154 -15 148 15 148 52 0 194 -88 442 -273 73 -55 136 -96 139 -93 4 4 -6 16 -22 29 -16 12 -42 34 -56 50 -15 15 -31 27 -37 27 -5 0 -12 7 -15 14 -7 17 10 12 61 -17 17 -10 32 -15 32 -11 0 14 -360 364 -374 364 -17 0 -31 127 -16 145 10 12 26 17 143 44 74 17 77 16 77 -28 0 -40 0 -40 -42 -44 l-43 -4 48 -1 47 -2 0 44 c0 40 11 56 36 56 2 0 5 -48 6 -107 l2 -108 5 110 6 110 35 4 35 5 -40 5 c-33 5 -39 10 -38 29 0 12 1 45 2 72 l1 50 39 0 40 0 4 -52 3 -53 2 58 2 57 -50 0 -50 0 0 -50 c0 -43 -3 -50 -20 -50 -15 0 -20 -7 -20 -25 0 -29 -17 -32 -60 -10 -24 12 -30 23 -31 48 0 17 -3 27 -5 21 -3 -7 -14 -10 -24 -7 -15 4 -20 0 -20 -16 0 -25 -19 -27 -60 -6 -24 13 -30 22 -30 50 0 33 1 34 48 38 l47 3 -47 2 -48 2 0 38 c1 86 71 204 310 523 83 111 163 220 177 243 15 24 -75 -60 -224 -209 -268 -270 -300 -299 -351 -324 -32 -15 -35 -15 -48 4 -19 25 -18 70 6 259 23 184 24 216 9 216 -6 0 -9 -9 -6 -20 3 -11 2 -18 -2 -16 -3 2 -19 -43 -35 -100 -27 -101 -46 -133 -46 -76 1 15 5 72 9 127 5 55 5 120 2 145 -6 42 -8 36 -35 -95z m-137 -704 c11 -7 11 -10 -1 -17 -32 -19 -48 -75 -48 -166 0 -81 -2 -88 -20 -88 -19 0 -20 7 -20 124 0 68 3 131 6 140 7 17 59 22 83 7z m141 -136 c0 -128 -1 -135 -20 -135 -18 0 -20 7 -20 89 0 53 -6 105 -15 131 -8 23 -15 44 -15 46 0 2 16 4 35 4 l35 0 0 -135z"/>
 <path d="M655 1239 c-5 -7 5 -8 32 -3 51 9 54 14 10 14 -20 0 -39 -5 -42 -11z"/>
 <path d="M377 1233 c-4 -3 -7 -11 -7 -17 0 -7 3 -7 8 1 4 7 38 14 77 16 l70 3 -71 2 c-39 1 -74 -1 -77 -5z"/>
 <path d="M1837 1233 c40 -4 42 -6 46 -41 l4 -37 1 43 2 42 -47 -2 -48 -1 42 -4z"/>
 <path d="M2089 1223 c-13 -16 -12 -17 3 -4 11 8 35 12 63 9 25 -2 45 0 45 4 0 5 -22 8 -49 8 -34 0 -53 -5 -62 -17z"/>
 <path d="M2256 1219 c-14 -11 -26 -26 -26 -32 0 -6 7 -2 15 11 9 12 30 26 48 31 23 6 26 9 11 10 -12 1 -33 -8 -48 -20z"/>
 <path d="M593 1100 c0 -41 2 -58 4 -37 2 20 2 54 0 75 -2 20 -4 3 -4 -38z"/>
 <path d="M2399 1147 c5 -5 26 -7 47 -5 l39 3 -47 5 c-26 3 -43 1 -39 -3z"/>
 <path d="M2353 1113 c26 -2 67 -2 90 0 23 2 2 3 -48 3 -49 0 -68 -1 -42 -3z"/>
 <path d="M2022 958 l2 -113 3 108 c3 76 7 106 15 101 7 -4 8 -3 4 4 -19 32 -26 4 -24 -100z"/>
 <path d="M2315 1065 c23 -8 85 -10 85 -3 0 4 -21 8 -47 7 -27 0 -43 -2 -38 -4z"/>
 <path d="M484 980 c1 -11 14 -15 46 -16 l45 -1 -42 4 c-23 2 -44 9 -46 16 -2 7 -3 5 -3 -3z"/>
 <path d="M800 979 c-19 -11 -28 -19 -19 -19 9 0 27 9 40 20 29 23 25 23 -21 -1z"/>
 <path d="M300 968 c0 -4 24 -7 53 -7 54 1 49 5 -15 11 -21 2 -38 0 -38 -4z"/>
 <path d="M2089 967 c5 -5 28 -7 52 -5 l44 3 -52 5 c-29 3 -48 1 -44 -3z"/>
 <path d="M43 963 c15 -2 37 -2 50 0 12 2 0 4 -28 4 -27 0 -38 -2 -22 -4z"/>
 <path d="M2318 963 c17 -2 47 -2 65 0 17 2 3 4 -33 4 -36 0 -50 -2 -32 -4z"/>
 <path d="M1883 885 c0 -22 2 -30 4 -17 2 12 2 30 0 40 -3 9 -5 -1 -4 -23z"/>
 </g>
<g id="layer103" fill="#a32062" stroke="none">
 <path d="M1426 1955 c-52 -256 -94 -398 -122 -409 -38 -15 -60 21 -138 222 -57 146 -85 206 -86 185 -1 -32 -19 -8 -38 50 -35 103 -25 38 28 -185 28 -116 49 -215 47 -222 -2 -6 -10 1 -19 14 -65 108 -78 124 -78 103 0 -41 -16 -24 -53 55 -48 102 -47 81 4 -49 73 -187 104 -289 89 -289 -13 0 -97 70 -201 166 -53 50 -115 105 -138 123 l-42 33 23 -37 c13 -20 31 -51 41 -68 l18 -32 -33 36 c-18 20 -64 65 -103 100 l-69 64 44 -55 c25 -30 87 -104 139 -165 169 -199 260 -332 245 -357 -3 -4 -44 -8 -92 -8 -82 0 -85 -1 -64 -16 17 -11 41 -15 91 -12 75 3 83 -5 20 -22 -40 -11 -63 -10 -232 12 -77 10 -86 13 -75 27 10 13 10 14 -2 4 -8 -7 -22 -13 -32 -13 -16 0 -17 -2 -6 -14 7 -8 17 -12 21 -9 5 3 21 -1 38 -7 28 -12 29 -15 29 -76 0 -34 3 -65 8 -67 4 -3 5 24 4 60 l-4 64 54 -27 c29 -15 64 -34 78 -43 l24 -16 -44 -6 -45 -7 52 1 c43 1 58 -4 79 -24 42 -39 57 -76 52 -134 -8 -95 -82 -210 -315 -487 -68 -81 -137 -167 -153 -190 -16 -24 -52 -67 -79 -97 -28 -30 -51 -56 -51 -58 0 -12 50 30 170 143 321 302 442 402 540 448 104 49 156 26 198 -86 17 -46 46 -166 56 -232 5 -35 16 -26 16 11 0 23 5 43 11 45 19 6 29 89 22 191 -4 66 -2 97 5 97 6 0 13 -13 17 -30 4 -16 10 -32 15 -35 5 -3 5 9 0 27 -9 30 -5 56 4 27 46 -145 71 -216 83 -238 l14 -26 -6 34 c-5 22 -3 36 5 41 10 6 10 33 1 122 -15 154 -15 148 15 148 52 0 194 -88 442 -273 73 -55 136 -96 139 -93 4 4 -6 16 -22 29 -16 12 -42 34 -56 50 -15 15 -31 27 -37 27 -5 0 -12 7 -15 14 -7 17 10 12 61 -17 17 -10 32 -15 32 -11 0 16 -362 365 -376 362 -8 -2 9 -28 46 -68 32 -36 59 -68 60 -73 1 -17 -61 26 -100 70 -53 60 -82 117 -78 151 3 25 5 23 25 -20 12 -27 25 -48 28 -48 3 0 5 30 3 67 -3 65 -2 68 24 81 16 7 54 18 85 24 32 5 70 12 86 15 26 5 27 4 27 -35 0 -41 0 -41 -42 -45 l-43 -4 48 -1 47 -2 0 44 c0 40 11 56 36 56 2 0 5 -48 6 -107 l2 -108 5 110 6 110 35 6 35 6 -37 2 c-20 0 -39 4 -41 9 -3 4 -3 37 0 75 l6 67 38 0 38 0 4 -52 3 -53 2 58 2 57 -50 0 -50 0 0 -50 c0 -43 -3 -50 -20 -50 -15 0 -20 -7 -20 -26 0 -24 -3 -26 -27 -20 -16 4 -48 9 -73 12 -24 2 -47 8 -50 12 -8 12 -61 33 -69 27 -5 -2 -15 3 -24 13 -26 28 -36 66 -27 103 l8 34 1 -31 c1 -34 30 -83 31 -52 0 13 11 18 48 21 l47 3 -47 2 -48 2 0 38 c1 86 71 204 310 523 83 111 163 220 177 243 15 24 -75 -60 -224 -209 -268 -270 -300 -299 -351 -324 -32 -15 -35 -15 -48 4 -19 25 -18 70 6 259 23 184 24 216 9 216 -6 0 -9 -9 -6 -20 3 -11 2 -18 -2 -16 -3 2 -19 -43 -35 -100 -27 -101 -46 -133 -46 -76 1 15 5 72 9 127 5 55 5 120 2 145 -6 42 -8 36 -35 -95z m-208 -386 c14 -24 36 -46 54 -54 31 -12 31 -13 10 -24 -31 -16 -53 -2 -80 52 -37 74 -24 96 16 26z m286 -78 c10 -11 28 -21 40 -23 18 -3 16 -5 -11 -15 -49 -18 -63 2 -62 85 2 65 2 65 8 20 4 -26 15 -56 25 -67z m-119 -4 c-12 -26 -14 -27 -10 -7 2 14 5 39 5 55 1 28 2 29 10 7 7 -16 5 -33 -5 -55z m-362 -69 c47 -31 55 -42 38 -52 -15 -10 -100 52 -117 86 l-17 32 24 -17 c13 -9 45 -31 72 -49z m127 22 c0 -16 -2 -30 -5 -30 -2 0 -11 14 -20 30 -15 29 -15 30 5 30 16 0 20 -7 20 -30z m139 -189 c11 -7 11 -10 -1 -17 -32 -19 -48 -75 -48 -166 0 -81 -2 -88 -20 -88 -19 0 -20 7 -20 124 0 68 3 131 6 140 7 17 59 22 83 7z m141 -136 c0 -128 -1 -135 -20 -135 -18 0 -20 7 -20 89 0 53 -6 105 -15 131 -8 23 -15 44 -15 46 0 2 16 4 35 4 l35 0 0 -135z m-250 -165 c8 -5 25 -10 38 -10 12 0 22 -4 22 -10 0 -5 -20 -10 -45 -10 l-45 0 2 143 2 142 5 -123 c5 -94 10 -125 21 -132z m164 234 c3 -9 6 -57 6 -108 0 -102 14 -136 56 -136 13 0 24 -4 24 -10 0 -5 -20 -10 -45 -10 l-45 0 0 115 c0 102 -2 117 -20 135 -25 25 -25 30 -1 30 10 0 22 -7 25 -16z m-27 -556 c-2 -18 -4 -6 -4 27 0 33 2 48 4 33 2 -15 2 -42 0 -60z"/>
 <path d="M655 1239 c-5 -7 5 -8 32 -3 51 9 54 14 10 14 -20 0 -39 -5 -42 -11z"/>
 <path d="M377 1233 c-4 -3 -7 -11 -7 -17 0 -7 3 -7 8 1 4 7 38 14 77 16 l70 3 -71 2 c-39 1 -74 -1 -77 -5z"/>
 <path d="M1837 1233 c40 -4 42 -6 46 -41 l4 -37 1 43 2 42 -47 -2 -48 -1 42 -4z"/>
 <path d="M2089 1223 c-13 -16 -12 -17 3 -4 11 8 35 12 63 9 25 -2 45 0 45 4 0 5 -22 8 -49 8 -34 0 -53 -5 -62 -17z"/>
 <path d="M2256 1219 c-14 -11 -26 -26 -26 -32 0 -6 7 -2 15 11 9 12 30 26 48 31 23 6 26 9 11 10 -12 1 -33 -8 -48 -20z"/>
 <path d="M1791 1173 c0 -6 -10 -9 -21 -6 -25 7 -28 -22 -3 -31 21 -8 36 7 30 30 -3 11 -5 14 -6 7z"/>
 <path d="M593 1100 c0 -41 2 -58 4 -37 2 20 2 54 0 75 -2 20 -4 3 -4 -38z"/>
 <path d="M2399 1147 c5 -5 26 -7 47 -5 l39 3 -47 5 c-26 3 -43 1 -39 -3z"/>
 <path d="M2353 1113 c26 -2 67 -2 90 0 23 2 2 3 -48 3 -49 0 -68 -1 -42 -3z"/>
 <path d="M2022 958 l2 -113 3 108 c3 76 7 106 15 101 7 -4 8 -3 4 4 -19 32 -26 4 -24 -100z"/>
 <path d="M2315 1065 c23 -8 85 -10 85 -3 0 4 -21 8 -47 7 -27 0 -43 -2 -38 -4z"/>
 <path d="M484 980 c1 -11 14 -15 46 -16 l45 -1 -42 4 c-23 2 -44 9 -46 16 -2 7 -3 5 -3 -3z"/>
 <path d="M800 979 c-19 -11 -28 -19 -19 -19 9 0 27 9 40 20 29 23 25 23 -21 -1z"/>
 <path d="M300 968 c0 -4 24 -7 53 -7 54 1 49 5 -15 11 -21 2 -38 0 -38 -4z"/>
 <path d="M2089 967 c5 -5 28 -7 52 -5 l44 3 -52 5 c-29 3 -48 1 -44 -3z"/>
 <path d="M43 963 c15 -2 37 -2 50 0 12 2 0 4 -28 4 -27 0 -38 -2 -22 -4z"/>
 <path d="M2318 963 c17 -2 47 -2 65 0 17 2 3 4 -33 4 -36 0 -50 -2 -32 -4z"/>
 <path d="M1883 885 c0 -22 2 -30 4 -17 2 12 2 30 0 40 -3 9 -5 -1 -4 -23z"/>
 </g>
<g id="layer104" fill="#575a92" stroke="none">
 <path d="M1426 1955 c-52 -256 -94 -398 -122 -409 -38 -15 -60 21 -138 222 -57 146 -85 206 -86 185 -1 -32 -19 -8 -38 50 -35 103 -25 38 28 -185 28 -116 49 -215 47 -222 -2 -6 -10 1 -19 14 -65 108 -78 124 -78 103 0 -41 -16 -24 -53 55 -48 102 -47 81 4 -49 73 -187 104 -289 89 -289 -13 0 -97 70 -201 166 -53 50 -115 105 -138 123 l-42 33 23 -37 c13 -20 31 -51 41 -68 l18 -32 -33 36 c-18 20 -64 65 -103 100 l-69 64 44 -55 c25 -30 87 -104 139 -165 169 -199 260 -332 245 -357 -3 -4 -44 -8 -92 -8 -82 0 -85 -1 -64 -16 17 -12 41 -15 93 -12 68 3 70 3 48 -14 -14 -12 -39 -18 -76 -18 -45 0 -54 -3 -49 -15 3 -8 1 -15 -5 -15 -6 0 -7 -5 -4 -10 9 -15 -1 -12 -53 13 -26 13 -73 32 -104 42 -49 16 -56 21 -46 34 10 13 10 14 -2 4 -8 -7 -22 -13 -32 -13 -16 0 -17 -2 -6 -14 7 -8 16 -12 21 -9 4 2 22 0 40 -6 32 -11 32 -11 29 -72 -2 -34 0 -65 5 -70 4 -4 6 21 5 57 l-4 65 31 -16 c18 -9 37 -13 44 -9 7 4 9 3 4 -1 -4 -5 12 -20 35 -34 l43 -26 -45 -6 -45 -7 52 1 c43 1 58 -4 79 -24 42 -39 57 -76 52 -134 -8 -95 -82 -210 -315 -487 -68 -81 -137 -167 -153 -190 -16 -24 -52 -67 -79 -97 -28 -30 -51 -56 -51 -58 0 -12 50 30 170 143 321 302 442 402 540 448 104 49 156 26 198 -86 17 -46 46 -166 56 -232 5 -35 16 -26 16 11 0 23 5 43 11 45 19 6 29 89 22 191 -4 66 -2 97 5 97 6 0 13 -13 17 -30 4 -16 10 -32 15 -35 5 -3 5 9 0 27 -9 30 -5 56 4 27 46 -145 71 -216 83 -238 l14 -26 -6 34 c-5 22 -3 36 5 41 10 6 10 33 1 122 -15 154 -15 148 15 148 52 0 194 -88 442 -273 73 -55 136 -96 139 -93 4 4 -6 16 -22 29 -16 12 -42 34 -56 50 -15 15 -31 27 -37 27 -5 0 -12 7 -15 14 -7 17 10 12 61 -17 17 -10 32 -15 32 -11 0 16 -362 365 -376 362 -8 -2 9 -28 46 -68 63 -70 73 -88 38 -69 l-23 12 20 -25 c11 -13 -8 6 -43 42 -101 105 -139 189 -102 223 10 9 11 9 6 0 -7 -13 28 -103 40 -103 3 0 4 28 0 63 -7 69 2 89 47 106 14 6 42 7 61 4 27 -4 37 -2 42 11 3 9 18 16 33 17 l26 0 -25 10 c-13 6 -27 14 -30 18 -8 12 -60 23 -60 12 0 -6 -11 -6 -30 0 -16 6 -30 15 -30 20 0 4 -8 6 -17 2 -10 -3 -15 -3 -11 2 4 4 -6 24 -23 43 -27 31 -31 41 -26 79 6 55 24 78 19 25 -2 -23 3 -45 12 -57 13 -17 15 -18 16 -3 0 13 11 18 48 21 l47 3 -47 2 -48 2 0 38 c1 51 36 132 103 236 32 48 54 92 51 98 -4 6 -3 8 3 5 14 -9 37 19 27 34 -4 7 -3 9 3 6 14 -9 37 19 27 34 -4 7 -3 9 3 6 14 -9 37 19 27 34 -4 7 -3 9 3 6 9 -6 200 240 247 318 10 17 -94 -82 -231 -220 -269 -270 -300 -299 -351 -324 -32 -15 -35 -15 -48 4 -19 25 -18 70 6 259 23 184 24 216 9 216 -6 0 -9 -9 -6 -20 3 -11 2 -18 -2 -16 -3 2 -19 -43 -35 -100 -27 -101 -46 -133 -46 -76 1 15 5 72 9 127 5 55 5 120 2 145 -6 42 -8 36 -35 -95z m-31 -403 c-1 -37 -6 -76 -13 -87 -11 -17 -12 -9 -7 50 6 62 13 105 18 105 1 0 2 -30 2 -68z m-180 22 c23 -43 58 -69 82 -60 15 6 15 4 -2 -14 -35 -38 -64 -23 -103 56 -19 37 -20 54 -3 54 4 0 15 -16 26 -36z m290 -84 c14 -16 28 -20 49 -17 27 4 28 3 10 -10 -28 -21 -62 -27 -78 -14 -19 16 -28 73 -19 119 l7 37 6 -47 c3 -26 15 -56 25 -68z m-491 -65 c26 -19 53 -32 58 -29 6 4 8 -2 6 -12 -2 -10 -10 -20 -19 -22 -15 -3 -121 69 -114 77 3 2 0 12 -6 23 -9 17 -8 18 8 9 10 -6 40 -27 67 -46z m138 20 c7 -34 -7 -41 -26 -13 -21 29 -20 38 3 38 12 0 20 -9 23 -25z m137 -194 c11 -7 11 -10 -1 -17 -32 -19 -48 -75 -48 -166 0 -81 -2 -88 -20 -88 -19 0 -20 7 -20 124 0 68 3 131 6 140 7 17 59 22 83 7z m141 -136 c0 -128 -1 -135 -20 -135 -18 0 -20 7 -20 89 0 53 -6 105 -15 131 -8 23 -15 44 -15 46 0 2 16 4 35 4 l35 0 0 -135z m-268 -12 c-1 -71 1 -134 6 -141 5 -8 24 -17 41 -20 41 -9 45 -26 7 -30 -69 -8 -71 -5 -74 122 -2 93 9 196 21 196 1 0 1 -57 -1 -127z m182 81 c3 -9 6 -57 6 -108 0 -107 13 -136 61 -136 20 0 29 -4 27 -12 -3 -8 -22 -13 -49 -13 l-44 0 -5 118 c-5 107 -7 121 -27 137 -12 9 -19 20 -16 24 12 12 41 6 47 -10z m-24 -509 l-7 -80 -2 67 c-1 58 6 105 14 96 2 -2 0 -39 -5 -83z"/>
 <path d="M655 1239 c-5 -7 5 -8 32 -3 51 9 54 14 10 14 -20 0 -39 -5 -42 -11z"/>
 <path d="M377 1233 c-4 -3 -7 -11 -7 -17 0 -7 3 -7 8 1 4 7 38 14 77 16 l70 3 -71 2 c-39 1 -74 -1 -77 -5z"/>
 <path d="M1837 1233 c40 -4 42 -6 46 -41 l4 -37 1 43 2 42 -47 -2 -48 -1 42 -4z"/>
 <path d="M1930 1190 c0 -42 -3 -50 -19 -50 -16 0 -20 -11 -26 -84 l-7 -85 -41 -4 -42 -4 48 -1 47 -2 0 44 c0 39 11 56 35 56 3 0 6 -46 8 -102 3 -90 4 -86 4 32 0 74 1 159 2 188 l1 52 39 0 40 0 4 -52 3 -53 2 58 2 57 -50 0 -50 0 0 -50z"/>
 <path d="M2089 1223 c-13 -16 -12 -17 3 -4 11 8 35 12 63 9 25 -2 45 0 45 4 0 5 -22 8 -49 8 -34 0 -53 -5 -62 -17z"/>
 <path d="M2256 1219 c-14 -11 -26 -26 -26 -32 0 -6 7 -2 15 11 9 12 30 26 48 31 23 6 26 9 11 10 -12 1 -33 -8 -48 -20z"/>
 <path d="M1791 1173 c0 -6 -10 -9 -21 -6 -25 7 -28 -22 -3 -31 21 -8 36 7 30 30 -3 11 -5 14 -6 7z"/>
 <path d="M593 1100 c0 -41 2 -58 4 -37 2 20 2 54 0 75 -2 20 -4 3 -4 -38z"/>
 <path d="M2399 1147 c5 -5 26 -7 47 -5 l39 3 -47 5 c-26 3 -43 1 -39 -3z"/>
 <path d="M2353 1113 c26 -2 67 -2 90 0 23 2 2 3 -48 3 -49 0 -68 -1 -42 -3z"/>
 <path d="M2022 958 l2 -113 3 108 c3 76 7 106 15 101 7 -4 8 -3 4 4 -19 32 -26 4 -24 -100z"/>
 <path d="M2315 1065 c23 -8 85 -10 85 -3 0 4 -21 8 -47 7 -27 0 -43 -2 -38 -4z"/>
 <path d="M484 980 c1 -11 14 -15 46 -16 l45 -1 -42 4 c-23 2 -44 9 -46 16 -2 7 -3 5 -3 -3z"/>
 <path d="M800 979 c-19 -11 -28 -19 -19 -19 9 0 27 9 40 20 29 23 25 23 -21 -1z"/>
 <path d="M300 968 c0 -4 24 -7 53 -7 54 1 49 5 -15 11 -21 2 -38 0 -38 -4z"/>
 <path d="M2089 967 c5 -5 28 -7 52 -5 l44 3 -52 5 c-29 3 -48 1 -44 -3z"/>
 <path d="M43 963 c15 -2 37 -2 50 0 12 2 0 4 -28 4 -27 0 -38 -2 -22 -4z"/>
 <path d="M2318 963 c17 -2 47 -2 65 0 17 2 3 4 -33 4 -36 0 -50 -2 -32 -4z"/>
 <path d="M1883 885 c0 -22 2 -30 4 -17 2 12 2 30 0 40 -3 9 -5 -1 -4 -23z"/>
 </g>
<g id="layer105" fill="#9a696e" stroke="none">
 <path d="M1426 1955 c-52 -256 -94 -398 -122 -409 -38 -15 -60 21 -138 222 -57 146 -85 206 -86 185 -1 -32 -19 -8 -38 50 -35 103 -25 38 28 -185 28 -116 49 -215 47 -222 -2 -6 -10 1 -19 14 -65 108 -78 124 -78 103 0 -41 -16 -24 -53 55 -48 102 -47 81 4 -49 73 -187 104 -289 89 -289 -13 0 -97 70 -201 166 -53 50 -115 105 -138 123 l-42 33 23 -37 c13 -20 31 -51 41 -68 l18 -32 -33 36 c-18 20 -64 65 -103 100 l-69 64 44 -55 c25 -30 87 -104 139 -165 169 -199 260 -332 245 -357 -3 -4 -41 -8 -86 -8 -72 0 -79 -2 -67 -16 10 -12 29 -15 86 -12 72 3 73 2 52 -14 -14 -12 -39 -18 -76 -18 -45 0 -54 -3 -49 -15 3 -8 1 -15 -5 -15 -6 0 -7 -5 -4 -10 9 -15 -1 -12 -53 13 -26 13 -73 32 -104 42 -49 16 -56 21 -46 34 10 13 10 14 -2 4 -8 -7 -22 -13 -32 -13 -16 0 -17 -2 -6 -14 7 -8 15 -10 18 -5 3 5 36 -7 74 -26 37 -20 73 -32 79 -28 7 3 9 2 4 -2 -4 -5 11 -19 33 -32 22 -13 40 -29 40 -34 0 -6 4 -8 9 -5 12 8 79 -68 87 -99 26 -105 -43 -226 -313 -547 -68 -81 -137 -167 -153 -190 -16 -24 -52 -67 -79 -97 -28 -30 -51 -56 -51 -58 0 -12 50 30 170 143 321 302 442 402 540 448 104 49 156 26 198 -86 17 -46 46 -166 56 -232 5 -35 16 -26 16 11 0 23 5 43 11 45 19 6 29 89 22 191 -4 66 -2 97 5 97 6 0 13 -13 17 -30 4 -16 10 -32 15 -35 5 -3 5 9 0 27 -9 30 -5 56 4 27 46 -145 71 -216 83 -238 l14 -26 -6 34 c-5 22 -3 36 5 41 10 6 10 33 1 122 -15 154 -15 148 15 148 52 0 194 -88 442 -273 73 -55 136 -96 139 -93 4 4 -6 16 -22 29 -16 12 -42 34 -56 50 -15 15 -31 27 -37 27 -5 0 -12 7 -15 14 -7 17 10 12 61 -17 17 -10 32 -15 32 -11 0 16 -362 365 -376 362 -8 -2 9 -28 46 -68 63 -70 73 -88 38 -69 l-23 12 20 -25 c11 -13 -8 6 -43 42 -101 105 -139 189 -102 223 10 9 11 9 6 0 -7 -13 28 -103 40 -103 3 0 4 28 0 63 -7 69 2 89 47 106 14 6 42 7 61 4 27 -4 37 -2 42 11 3 9 18 16 33 17 l26 0 -25 10 c-13 6 -27 14 -30 18 -8 12 -60 23 -60 12 0 -6 -11 -6 -30 0 -16 6 -30 15 -30 20 0 4 -8 6 -17 2 -10 -3 -15 -3 -11 2 4 4 -6 24 -23 43 -27 31 -31 41 -26 79 6 55 24 78 19 25 -2 -23 3 -45 12 -57 14 -19 15 -16 16 40 1 75 27 142 103 259 32 48 54 92 51 98 -4 6 -3 8 3 5 14 -9 37 19 27 34 -4 7 -3 9 3 6 14 -9 37 19 27 34 -4 7 -3 9 3 6 14 -9 37 19 27 34 -4 7 -3 9 3 6 9 -6 200 240 247 318 10 17 -94 -82 -231 -220 -269 -270 -300 -299 -351 -324 -32 -15 -35 -15 -48 4 -19 25 -18 70 6 259 23 184 24 216 9 216 -6 0 -9 -9 -6 -20 3 -11 2 -18 -2 -16 -3 2 -19 -43 -35 -100 -27 -101 -46 -133 -46 -76 1 15 5 72 9 127 5 55 5 120 2 145 -6 42 -8 36 -35 -95z m-31 -403 c-1 -37 -6 -76 -13 -87 -11 -17 -12 -9 -7 50 6 62 13 105 18 105 1 0 2 -30 2 -68z m-180 22 c23 -43 58 -69 82 -60 15 6 15 4 -2 -14 -35 -38 -64 -23 -103 56 -19 37 -20 54 -3 54 4 0 15 -16 26 -36z m290 -84 c14 -16 28 -20 49 -17 27 4 28 3 10 -10 -28 -21 -62 -27 -78 -14 -19 16 -28 73 -19 119 l7 37 6 -47 c3 -26 15 -56 25 -68z m-491 -65 c26 -19 53 -32 58 -29 6 4 8 -2 6 -12 -2 -10 -10 -20 -19 -22 -15 -3 -121 69 -114 77 3 2 0 12 -6 23 -9 17 -8 18 8 9 10 -6 40 -27 67 -46z m138 20 c7 -34 -7 -41 -26 -13 -21 29 -20 38 3 38 12 0 20 -9 23 -25z m137 -194 c11 -7 11 -10 -1 -17 -32 -19 -48 -75 -48 -166 0 -81 -2 -88 -20 -88 -19 0 -20 7 -20 124 0 68 3 131 6 140 7 17 59 22 83 7z m141 -136 c0 -128 -1 -135 -20 -135 -18 0 -20 7 -20 89 0 53 -6 105 -15 131 -8 23 -15 44 -15 46 0 2 16 4 35 4 l35 0 0 -135z m-268 -12 c-1 -71 1 -134 6 -141 5 -8 24 -17 41 -20 41 -9 45 -26 7 -30 -69 -8 -71 -5 -74 122 -2 93 9 196 21 196 1 0 1 -57 -1 -127z m182 81 c3 -9 6 -57 6 -108 0 -107 13 -136 61 -136 20 0 29 -4 27 -12 -3 -8 -22 -13 -49 -13 l-44 0 -5 118 c-5 107 -7 121 -27 137 -12 9 -19 20 -16 24 12 12 41 6 47 -10z m-24 -509 l-7 -80 -2 67 c-1 58 6 105 14 96 2 -2 0 -39 -5 -83z"/>
 <path d="M655 1241 c-3 -6 10 -7 32 -4 50 8 55 13 10 13 -20 0 -38 -4 -42 -9z"/>
 <path d="M377 1233 c-3 -5 18 -7 46 -5 92 5 104 9 30 11 -39 0 -74 -2 -76 -6z"/>
 <path d="M1933 1195 c0 -27 2 -38 4 -22 2 15 2 37 0 50 -2 12 -4 0 -4 -28z"/>
 <path d="M2023 1185 c0 -33 2 -45 4 -27 2 18 2 45 0 60 -2 15 -4 0 -4 -33z"/>
 <path d="M1791 1173 c0 -6 -10 -9 -21 -6 -25 7 -28 -22 -3 -31 21 -8 36 7 30 30 -3 11 -5 14 -6 7z"/>
 <path d="M592 1140 c0 -19 2 -27 5 -17 2 9 2 25 0 35 -3 9 -5 1 -5 -18z"/>
 <path d="M2399 1147 c5 -5 26 -7 47 -5 l39 3 -47 5 c-26 3 -43 1 -39 -3z"/>
 <path d="M683 1100 c0 -30 2 -43 4 -27 2 15 2 39 0 55 -2 15 -4 2 -4 -28z"/>
 <path d="M1890 1094 c0 -41 2 -45 20 -39 19 6 20 1 22 -102 2 -107 2 -107 6 -23 2 47 0 113 -3 148 -6 52 -10 62 -26 62 -16 0 -19 -7 -19 -46z"/>
 <path d="M592 1060 c0 -19 2 -27 5 -17 2 9 2 25 0 35 -3 9 -5 1 -5 -18z"/>
 <path d="M2022 958 l2 -113 3 108 c3 76 7 106 15 101 7 -4 8 -3 4 4 -19 32 -26 4 -24 -100z"/>
 <path d="M2328 1063 c12 -2 32 -2 45 0 12 2 2 4 -23 4 -25 0 -35 -2 -22 -4z"/>
 <path d="M2089 967 c5 -5 28 -7 52 -5 l44 3 -52 5 c-29 3 -48 1 -44 -3z"/>
 <path d="M1823 963 c15 -2 37 -2 50 0 12 2 0 4 -28 4 -27 0 -38 -2 -22 -4z"/>
 <path d="M2318 963 c17 -2 47 -2 65 0 17 2 3 4 -33 4 -36 0 -50 -2 -32 -4z"/>
 </g>
<g id="layer106" fill="#d13196" stroke="none">
 <path d="M1426 1955 c-52 -256 -94 -398 -122 -409 -38 -15 -60 21 -138 222 -57 146 -85 206 -86 185 -1 -32 -19 -8 -38 50 -35 103 -25 38 28 -185 28 -116 49 -215 47 -222 -2 -6 -10 1 -19 14 -65 108 -78 124 -78 103 0 -41 -16 -24 -53 55 -48 102 -47 81 4 -49 73 -187 104 -289 89 -289 -13 0 -97 70 -201 166 -53 50 -115 105 -138 123 l-42 33 23 -37 c13 -20 31 -51 41 -68 l18 -32 -33 36 c-18 20 -64 65 -103 100 l-69 64 44 -55 c25 -30 87 -104 139 -165 169 -199 260 -332 245 -357 -3 -4 -42 -9 -87 -9 -80 -1 -81 -2 -32 -10 28 -5 67 -6 88 -3 42 7 49 -7 15 -30 -14 -10 -44 -16 -76 -16 -44 0 -53 -3 -48 -15 3 -8 1 -15 -5 -15 -6 0 -7 -5 -4 -10 9 -15 -1 -12 -53 13 -26 13 -73 32 -104 42 -49 16 -56 21 -46 34 10 13 10 14 -2 4 -8 -7 -22 -13 -32 -13 -16 0 -17 -2 -6 -14 7 -8 15 -10 18 -5 3 5 36 -7 74 -26 37 -20 73 -32 79 -28 7 3 9 2 4 -2 -4 -5 11 -19 33 -32 22 -13 40 -29 40 -34 0 -6 4 -8 9 -5 12 8 79 -68 87 -99 11 -43 -2 -111 -30 -168 -32 -63 -130 -197 -233 -320 -42 -50 -71 -92 -67 -99 4 -6 3 -8 -3 -5 -11 7 -80 -68 -131 -143 -17 -25 -54 -69 -81 -99 -28 -30 -51 -56 -51 -58 0 -12 50 30 170 143 321 302 442 402 540 448 104 49 156 26 198 -86 17 -46 46 -166 56 -232 5 -35 16 -26 16 11 0 23 5 43 11 45 19 6 29 89 22 191 -4 66 -2 97 5 97 6 0 13 -13 17 -30 4 -16 10 -32 15 -35 5 -3 5 9 0 27 -9 30 -5 56 4 27 46 -145 71 -216 83 -238 l14 -26 -6 34 c-5 22 -3 36 5 41 10 6 10 33 1 122 -15 154 -15 148 15 148 52 0 194 -88 442 -273 73 -55 136 -96 139 -93 4 4 -6 16 -22 29 -16 12 -42 34 -56 50 -15 15 -31 27 -37 27 -5 0 -12 7 -15 14 -7 17 10 12 61 -17 17 -10 32 -15 32 -11 0 5 -81 88 -180 186 -99 97 -180 174 -180 171 0 -4 55 -62 122 -129 121 -123 145 -161 68 -110 -22 14 -44 26 -50 26 -17 0 -180 171 -207 217 -31 53 -33 98 -6 125 l21 20 -5 -25 c-3 -13 2 -38 11 -53 l16 -29 -5 50 c-8 74 32 111 109 98 27 -4 37 -2 42 11 3 9 18 16 33 17 l26 0 -25 10 c-13 6 -27 14 -30 18 -8 12 -60 23 -60 12 0 -6 -11 -6 -30 0 -16 6 -30 15 -30 20 0 4 -8 6 -17 2 -10 -3 -15 -3 -11 2 4 4 -6 23 -22 42 -37 42 -38 77 -6 156 25 60 114 208 154 255 13 15 0 -8 -28 -51 -79 -120 -110 -193 -109 -252 l2 -50 7 56 c9 72 41 141 123 263 37 54 64 102 62 107 -3 4 0 11 6 15 8 5 9 3 4 -7 -8 -12 -6 -12 8 0 10 7 16 21 15 30 -2 8 4 16 12 16 8 0 15 9 15 20 0 11 6 20 12 20 7 0 20 11 30 24 12 18 13 22 2 16 -8 -4 0 5 17 21 33 31 133 160 178 232 21 33 -5 13 -103 -84 -118 -115 -155 -158 -118 -138 6 4 -13 -19 -43 -50 -30 -31 -57 -56 -59 -56 -3 0 17 24 44 52 28 29 -4 1 -71 -62 -150 -143 -180 -168 -222 -189 -32 -15 -35 -15 -48 4 -19 25 -18 70 6 259 23 184 24 216 9 216 -6 0 -9 -9 -6 -20 3 -11 2 -18 -2 -16 -3 2 -19 -43 -35 -100 -27 -101 -46 -133 -46 -76 1 15 5 72 9 127 5 55 5 120 2 145 -6 42 -8 36 -35 -95z m78 -298 c-6 -118 -5 -135 10 -150 10 -9 25 -17 35 -17 27 0 96 53 189 143 45 45 82 76 82 70 0 -16 -190 -195 -247 -232 -25 -17 -54 -31 -63 -31 -45 0 -55 59 -35 196 30 199 38 206 29 21z m-313 16 c54 -117 73 -143 101 -143 22 0 23 -8 1 -32 -22 -25 -48 -23 -71 7 -25 32 -84 171 -86 202 0 13 -4 23 -7 23 -3 0 -4 11 -1 25 2 14 6 25 8 25 3 0 27 -48 55 -107z m233 2 c-6 -95 -21 -171 -41 -205 -13 -23 -13 -19 -8 45 4 39 10 88 15 110 4 22 11 67 15 99 10 88 26 48 19 -49z m-504 -150 c52 -45 110 -91 128 -104 34 -24 42 -48 17 -57 -40 -16 -199 131 -254 235 -18 33 -6 24 109 -74z m210 -10 c22 -48 28 -88 15 -95 -16 -8 -62 88 -63 133 -1 40 -1 41 14 22 9 -11 24 -38 34 -60z m159 -264 c11 -7 11 -10 -1 -17 -32 -19 -48 -75 -48 -166 0 -81 -2 -88 -20 -88 -19 0 -20 7 -20 124 0 68 3 131 6 140 7 17 59 22 83 7z m-107 -132 c-3 -136 2 -159 38 -159 17 0 34 -33 22 -44 -8 -9 -75 -7 -87 2 -6 4 -10 63 -10 142 0 113 3 140 18 163 9 15 18 27 20 27 1 0 1 -59 -1 -131z m248 -4 c0 -128 -1 -135 -20 -135 -18 0 -20 7 -20 89 0 53 -6 105 -15 131 -8 23 -15 44 -15 46 0 2 16 4 35 4 l35 0 0 -135z m-60 -39 c0 -94 8 -116 41 -116 20 0 34 -29 21 -42 -5 -5 -27 -8 -48 -6 l-39 3 -5 118 c-5 116 -6 119 -34 142 -32 26 -27 49 10 42 14 -2 24 1 24 7 1 6 7 -4 15 -23 10 -21 15 -67 15 -125z m-30 -451 c0 -113 -2 -135 -15 -135 -12 0 -15 20 -15 119 0 66 3 126 6 135 16 42 24 4 24 -119z m130 65 c0 -58 -3 -68 -15 -64 -27 11 -16 134 12 134 2 0 3 -31 3 -70z"/>
 <path d="M656 1242 c-2 -4 13 -6 35 -4 21 2 39 6 39 8 0 7 -69 4 -74 -4z"/>
 <path d="M377 1233 c-3 -5 18 -7 46 -5 92 5 104 9 30 11 -39 0 -74 -2 -76 -6z"/>
 <path d="M1933 1195 c0 -27 2 -38 4 -22 2 15 2 37 0 50 -2 12 -4 0 -4 -28z"/>
 <path d="M2023 1185 c0 -33 2 -45 4 -27 2 18 2 45 0 60 -2 15 -4 0 -4 -33z"/>
 <path d="M1791 1173 c-1 -6 -11 -9 -23 -7 l-23 5 23 -12 c24 -13 37 -8 29 13 -3 8 -6 9 -6 1z"/>
 <path d="M592 1140 c0 -19 2 -27 5 -17 2 9 2 25 0 35 -3 9 -5 1 -5 -18z"/>
 <path d="M2399 1147 c5 -5 26 -7 47 -5 l39 3 -47 5 c-26 3 -43 1 -39 -3z"/>
 <path d="M683 1100 c0 -30 2 -43 4 -27 2 15 2 39 0 55 -2 15 -4 2 -4 -28z"/>
 <path d="M1908 1092 c-10 -2 -18 -12 -18 -23 0 -16 5 -19 20 -14 18 6 19 0 23 -102 l3 -108 2 115 c1 63 -2 120 -6 125 -4 6 -15 9 -24 7z"/>
 <path d="M592 1060 c0 -19 2 -27 5 -17 2 9 2 25 0 35 -3 9 -5 1 -5 -18z"/>
 <path d="M2022 958 l2 -113 3 108 c3 76 7 106 15 101 7 -4 8 -3 4 4 -19 32 -26 4 -24 -100z"/>
 <path d="M2328 1063 c12 -2 32 -2 45 0 12 2 2 4 -23 4 -25 0 -35 -2 -22 -4z"/>
 <path d="M2089 967 c5 -5 28 -7 52 -5 l44 3 -52 5 c-29 3 -48 1 -44 -3z"/>
 <path d="M1823 963 c15 -2 37 -2 50 0 12 2 0 4 -28 4 -27 0 -38 -2 -22 -4z"/>
 <path d="M2318 963 c17 -2 47 -2 65 0 17 2 3 4 -33 4 -36 0 -50 -2 -32 -4z"/>
 </g>
<g id="layer107" fill="#b18990" stroke="none">
 <path d="M1426 1957 c-16 -76 -26 -140 -23 -143 2 -3 13 36 23 85 21 106 31 113 15 12 -6 -39 -13 -126 -16 -194 l-4 -122 22 75 c13 41 19 78 14 81 -5 4 -5 60 1 130 5 68 6 144 3 169 -6 42 -8 36 -35 -93z"/>
 <path d="M2142 2057 c-12 -13 -22 -28 -22 -34 0 -5 -16 -32 -36 -59 -32 -44 -32 -45 -4 -14 29 32 94 130 87 130 -2 0 -13 -10 -25 -23z"/>
 <path d="M1021 2045 c0 -25 56 -255 58 -235 0 8 -6 39 -14 69 -8 30 -12 58 -9 62 2 5 -4 34 -15 66 -11 32 -20 49 -20 38z"/>
 <path d="M1503 1878 c-17 -62 -30 -115 -28 -116 2 -2 15 31 30 75 14 43 23 65 20 48 -12 -64 -28 -331 -22 -357 12 -45 49 -47 109 -5 56 38 382 359 430 422 17 22 -59 -50 -168 -160 -215 -217 -251 -249 -302 -274 -32 -15 -35 -15 -48 4 -19 25 -18 70 6 259 11 88 20 172 20 188 0 56 -17 26 -47 -84z"/>
 <path d="M1073 1945 c-10 -10 -5 -34 21 -112 25 -72 34 -91 38 -73 3 20 16 1 63 -95 33 -66 68 -124 78 -130 19 -11 48 2 56 26 3 9 -1 8 -13 -4 -42 -42 -64 -12 -151 213 -70 179 -76 192 -92 175z"/>
 <path d="M1999 1853 c-23 -32 -36 -53 -28 -46 17 14 83 103 76 103 -3 0 -24 -26 -48 -57z"/>
 <path d="M930 1835 c0 -15 90 -249 101 -260 5 -5 -2 18 -15 52 -13 34 -22 64 -20 66 3 2 -11 37 -30 78 -20 41 -36 69 -36 64z"/>
 <path d="M600 1760 c93 -115 185 -220 193 -220 4 0 -9 20 -30 45 -21 25 -38 52 -38 60 0 7 -38 49 -85 92 -83 76 -83 77 -40 23z"/>
 <path d="M1386 1774 c-4 -14 -5 -28 -3 -31 3 -2 8 8 11 23 4 14 5 28 3 31 -3 2 -8 -8 -11 -23z"/>
 <path d="M1882 1698 c-175 -237 -233 -343 -231 -423 l2 -50 7 55 c13 104 87 229 293 498 5 6 7 12 3 12 -3 0 -37 -42 -74 -92z"/>
 <path d="M695 1725 c10 -17 25 -37 33 -47 7 -9 12 -22 10 -30 -2 -8 28 -43 67 -78 49 -46 62 -55 44 -30 -30 40 -52 80 -45 80 3 0 55 -43 116 -95 109 -93 150 -123 150 -108 -1 4 -20 20 -43 35 -23 15 -92 74 -154 131 -61 57 -131 119 -154 138 l-42 33 18 -29z"/>
 <path d="M1017 1700 c-5 -24 1 -47 28 -101 20 -38 37 -69 38 -69 2 0 2 14 -1 30 -6 41 2 38 33 -12 15 -24 24 -35 21 -25 -3 10 -6 32 -6 48 0 17 -4 28 -10 24 -5 -3 -15 5 -23 17 -7 13 -27 45 -44 71 l-30 49 -6 -32z"/>
 <path d="M1676 1519 c-67 -59 -153 -109 -187 -109 -9 0 -23 8 -30 18 -11 14 -11 15 1 5 8 -7 23 -13 35 -13 18 0 18 1 -4 13 -24 12 -34 25 -46 62 -6 18 -9 16 -23 -15 -14 -28 -23 -35 -47 -35 -29 0 -30 1 -29 46 l0 46 -21 -31 c-43 -64 -104 -55 -144 22 l-20 37 5 -40 c3 -22 7 -53 10 -69 3 -19 -2 -36 -13 -49 -17 -19 -17 -20 0 -14 9 4 17 2 17 -3 0 -12 -22 -13 -52 -1 -21 8 -26 5 -41 -23 l-17 -31 21 25 c18 21 21 22 18 6 -7 -36 -34 -42 -88 -19 -41 17 -48 18 -44 5 4 -10 2 -13 -6 -8 -6 4 -1 -13 11 -38 12 -25 24 -44 26 -42 2 2 -4 18 -13 36 -9 18 -14 34 -11 37 9 10 46 -80 46 -112 0 -32 -24 -75 -41 -75 -6 0 -1 12 10 26 12 15 21 38 20 53 -1 23 -2 23 -9 -7 -11 -47 -36 -70 -83 -77 -82 -13 -82 -13 -28 -61 70 -63 85 -99 77 -193 -3 -42 -9 -92 -12 -111 -5 -32 -3 -37 28 -53 26 -14 40 -15 68 -7 85 25 161 2 199 -60 l18 -31 8 63 c5 35 7 67 6 72 -4 18 23 36 54 36 33 0 61 -21 51 -39 -3 -5 0 -21 8 -35 l14 -27 4 25 c3 14 1 23 -3 20 -17 -10 -9 16 11 36 31 31 92 26 170 -12 36 -18 69 -34 74 -36 4 -3 -13 21 -38 52 -25 31 -48 69 -52 84 -3 15 -7 33 -10 40 -4 13 10 44 35 75 21 25 3 21 -20 -5 l-20 -23 11 22 c6 13 20 28 31 34 15 8 19 8 15 0 -10 -15 5 -13 26 3 10 7 15 16 11 20 -4 4 1 4 11 0 11 -4 17 -3 14 2 -4 5 13 10 35 11 23 1 53 6 67 11 22 9 18 11 -40 22 -55 11 -72 20 -107 55 -41 40 -43 45 -43 101 1 73 29 146 101 255 28 44 50 81 48 83 -2 2 -35 -23 -73 -55z m-381 -69 c-3 -5 -16 -10 -28 -9 -21 0 -21 1 -2 9 28 12 37 12 30 0z m-10 -175 c25 -9 43 -11 49 -5 14 14 103 12 112 -1 4 -7 8 -73 10 -148 2 -75 6 -152 9 -172 8 -49 -12 -69 -71 -69 -81 0 -82 2 -76 138 4 103 2 120 -13 135 -34 35 -40 16 -38 -126 2 -156 5 -151 -93 -145 l-49 3 -2 160 c-3 180 2 200 57 227 42 21 53 22 105 3z"/>
 <path d="M1192 1248 c-17 -17 -17 -259 0 -276 17 -17 45 -15 52 4 3 9 6 54 6 100 0 72 3 89 22 114 12 17 31 30 41 30 19 0 20 1 2 20 -10 11 -23 20 -29 20 -6 0 -5 -4 3 -9 11 -7 11 -10 -1 -17 -32 -19 -48 -75 -48 -166 0 -82 -1 -88 -21 -88 -20 0 -20 4 -17 140 2 77 3 140 3 140 -1 0 -6 -5 -13 -12z"/>
 <path d="M1355 1223 c4 -21 10 -85 13 -142 7 -108 18 -132 56 -118 14 6 16 26 16 152 l0 145 -46 0 -46 0 7 -37z m75 -108 c0 -128 -1 -135 -20 -135 -18 0 -20 7 -20 89 0 53 -6 105 -15 131 -8 23 -15 44 -15 46 0 2 16 4 35 4 l35 0 0 -135z"/>
 <path d="M656 1242 c-2 -4 13 -6 35 -4 21 2 39 6 39 8 0 7 -69 4 -74 -4z"/>
 <path d="M377 1233 c-3 -5 18 -7 46 -5 92 5 104 9 30 11 -39 0 -74 -2 -76 -6z"/>
 <path d="M900 1231 l-85 -6 56 -7 c60 -8 119 -1 119 13 0 5 -1 8 -2 7 -2 -1 -41 -4 -88 -7z"/>
 <path d="M1933 1195 c0 -27 2 -38 4 -22 2 15 2 37 0 50 -2 12 -4 0 -4 -28z"/>
 <path d="M2023 1185 c0 -33 2 -45 4 -27 2 18 2 45 0 60 -2 15 -4 0 -4 -33z"/>
 <path d="M625 1221 c-6 -5 -17 -11 -27 -13 -12 -2 -13 -6 -4 -14 9 -8 16 -5 29 13 18 23 19 30 2 14z"/>
 <path d="M1791 1173 c-1 -6 -11 -9 -23 -7 l-23 5 23 -12 c24 -13 37 -8 29 13 -3 8 -6 9 -6 1z"/>
 <path d="M592 1140 c0 -19 2 -27 5 -17 2 9 2 25 0 35 -3 9 -5 1 -5 -18z"/>
 <path d="M2399 1147 c5 -5 26 -7 47 -5 l39 3 -47 5 c-26 3 -43 1 -39 -3z"/>
 <path d="M683 1100 c0 -30 2 -43 4 -27 2 15 2 39 0 55 -2 15 -4 2 -4 -28z"/>
 <path d="M857 1089 c7 -9 11 -18 8 -21 -3 -2 7 -15 23 -29 l27 -24 -23 26 c-12 14 -20 28 -17 31 3 3 -3 11 -12 19 -16 12 -17 12 -6 -2z"/>
 <path d="M592 1060 c0 -19 2 -27 5 -17 2 9 2 25 0 35 -3 9 -5 1 -5 -18z"/>
 <path d="M2022 958 l2 -113 3 108 c3 76 7 106 15 101 7 -4 8 -3 4 4 -19 32 -26 4 -24 -100z"/>
 <path d="M2328 1063 c12 -2 32 -2 45 0 12 2 2 4 -23 4 -25 0 -35 -2 -22 -4z"/>
 <path d="M1934 955 c0 -60 1 -84 3 -52 2 32 2 81 0 110 -2 29 -3 3 -3 -58z"/>
 <path d="M1642 988 c-16 -16 -15 -47 3 -78 13 -23 13 -21 12 32 -1 32 -2 58 -2 58 -1 0 -6 -5 -13 -12z"/>
 <path d="M2089 967 c5 -5 28 -7 52 -5 l44 3 -52 5 c-29 3 -48 1 -44 -3z"/>
 <path d="M1823 963 c15 -2 37 -2 50 0 12 2 0 4 -28 4 -27 0 -38 -2 -22 -4z"/>
 <path d="M2318 963 c17 -2 47 -2 65 0 17 2 3 4 -33 4 -36 0 -50 -2 -32 -4z"/>
 <path d="M1690 843 c0 -4 55 -62 122 -129 121 -123 145 -161 68 -110 -22 14 -42 26 -44 26 -13 0 108 -104 124 -107 10 -1 34 -12 54 -24 20 -11 36 -17 36 -13 0 5 -81 88 -180 186 -99 97 -180 174 -180 171z"/>
 <path d="M886 762 c-24 -47 -131 -188 -264 -347 -69 -82 -132 -159 -141 -169 -9 -11 -10 -16 -4 -12 16 9 156 172 254 296 98 123 190 260 175 260 -3 0 -12 -13 -20 -28z"/>
 <path d="M1444 774 c-19 -15 -19 -15 1 -6 11 5 27 12 35 15 13 5 13 6 -1 6 -8 1 -24 -6 -35 -15z"/>
 <path d="M1344 764 c9 -8 16 -24 16 -35 0 -11 3 -18 8 -16 4 3 7 -13 7 -34 1 -21 6 -44 13 -51 9 -9 9 -4 2 23 -12 42 -12 42 0 34 16 -10 12 5 -11 41 -11 19 -16 34 -10 34 6 0 11 5 11 10 0 6 -12 10 -26 10 -23 0 -24 -1 -10 -16z"/>
 <path d="M1477 763 c-4 -3 -7 -37 -7 -75 0 -49 -3 -67 -11 -62 -9 5 -10 -4 -5 -30 18 -103 17 -113 -5 -53 -12 32 -23 56 -25 54 -5 -5 35 -124 53 -156 14 -26 14 -26 8 8 -5 22 -3 36 5 41 10 6 10 33 1 122 -15 152 -15 146 17 151 l27 4 -26 2 c-14 0 -29 -2 -32 -6z"/>
 <path d="M1341 618 c-1 -78 -5 -128 -11 -128 -5 0 -10 -20 -10 -45 0 -48 14 -60 26 -22 10 28 11 281 2 305 -4 9 -7 -40 -7 -110z"/>
 <path d="M1871 553 c6 -17 209 -166 216 -159 4 4 -6 16 -22 29 -16 12 -42 34 -56 50 -15 15 -35 27 -44 27 -9 0 -35 14 -58 32 -22 18 -38 27 -36 21z"/>
 <path d="M769 463 l-34 -38 38 34 c20 19 37 36 37 38 0 8 -8 0 -41 -34z"/>
 <path d="M1283 455 c5 -18 20 -99 21 -117 1 -3 5 -10 10 -15 5 -4 6 5 3 22 -14 74 -25 116 -32 123 -4 4 -5 -2 -2 -13z"/>
 <path d="M665 368 l-60 -63 63 60 c34 33 62 61 62 62 0 8 -10 -1 -65 -59z"/>
 <path d="M516 235 c-39 -35 -73 -63 -77 -62 -7 2 -99 -91 -99 -100 0 -12 48 27 145 121 121 115 141 143 31 41z"/>
 </g>
<g id="layer108" fill="#d8a2c8" stroke="none">
 <path d="M1425 1955 c-15 -75 -25 -138 -22 -141 2 -3 13 35 23 85 10 49 21 88 24 86 3 -2 7 21 8 51 1 30 1 54 -1 54 -2 0 -16 -61 -32 -135z"/>
 <path d="M2142 2057 c-12 -13 -22 -28 -22 -34 0 -5 -16 -32 -36 -59 -32 -44 -32 -45 -4 -14 29 32 94 130 87 130 -2 0 -13 -10 -25 -23z"/>
 <path d="M1021 2045 c0 -11 13 -72 29 -135 16 -63 26 -97 23 -75 -4 22 -7 56 -8 75 -2 39 -44 167 -44 135z"/>
 <path d="M1503 1878 c-17 -62 -30 -114 -28 -116 2 -2 14 29 27 70 12 40 26 74 29 76 3 1 4 15 2 30 -4 21 -2 24 6 12 9 -12 11 -10 11 13 0 55 -17 24 -47 -85z"/>
 <path d="M1869 1783 c-208 -211 -229 -231 -281 -263 -18 -11 -28 -20 -22 -20 25 0 135 94 259 221 189 195 250 259 244 259 -2 0 -92 -89 -200 -197z"/>
 <path d="M1999 1853 c-23 -32 -36 -53 -28 -46 17 14 83 103 76 103 -3 0 -24 -26 -48 -57z"/>
 <path d="M930 1835 c0 -16 91 -249 101 -260 6 -5 3 7 -6 28 -9 21 -13 48 -10 60 5 17 4 19 -4 7 -10 -13 -11 -13 -12 0 -1 8 -1 18 0 22 0 4 -15 40 -34 80 -19 40 -35 68 -35 63z"/>
 <path d="M600 1760 c99 -123 185 -220 194 -220 5 0 -3 14 -20 31 -19 21 -25 33 -16 36 17 6 15 28 -3 43 -9 8 -15 9 -15 2 0 -6 5 -14 10 -17 6 -4 8 -11 4 -16 -8 -13 -34 9 -28 24 2 7 -35 48 -83 92 -85 78 -86 78 -43 25z"/>
 <path d="M1386 1774 c-4 -14 -5 -28 -3 -31 3 -2 8 8 11 23 4 14 5 28 3 31 -3 2 -8 -8 -11 -23z"/>
 <path d="M1881 1698 c-130 -176 -221 -327 -221 -368 0 -8 11 10 23 41 32 77 128 221 270 407 5 6 7 12 3 12 -3 0 -37 -42 -75 -92z"/>
 <path d="M1196 1670 c10 -41 58 -123 74 -128 10 -4 9 1 -4 14 -11 10 -32 46 -48 79 -16 33 -26 49 -22 35z"/>
 <path d="M820 1626 c58 -63 210 -196 222 -196 5 0 -12 17 -39 38 -26 21 -88 76 -138 122 -49 46 -70 62 -45 36z"/>
 <path d="M1096 1597 c8 -22 34 -30 34 -10 0 9 -3 13 -7 10 -3 -4 -12 -2 -20 5 -11 8 -12 7 -7 -5z"/>
 <path d="M1503 1575 c0 -22 2 -30 4 -17 2 12 2 30 0 40 -3 9 -5 -1 -4 -23z"/>
 <path d="M1676 1519 c-67 -59 -153 -109 -187 -109 -9 0 -23 8 -30 18 -11 14 -11 15 1 5 8 -7 23 -13 35 -13 18 0 18 1 -4 13 -24 12 -34 25 -46 62 -6 18 -9 16 -23 -15 -14 -28 -23 -35 -47 -35 -29 0 -30 1 -29 46 l0 46 -21 -31 c-43 -64 -104 -55 -144 22 l-20 37 5 -40 c3 -22 7 -53 10 -69 3 -19 -2 -36 -13 -49 -17 -19 -17 -20 0 -14 9 4 17 2 17 -3 0 -12 -22 -13 -52 -1 -21 8 -26 5 -41 -23 l-17 -31 21 25 c18 21 21 22 18 6 -7 -36 -34 -42 -88 -19 -41 17 -48 18 -44 5 4 -10 2 -13 -6 -8 -6 4 -1 -13 11 -38 12 -25 24 -44 26 -42 2 2 -4 18 -13 36 -9 18 -14 34 -11 37 9 10 46 -80 46 -112 0 -32 -24 -75 -41 -75 -6 0 -1 12 10 26 12 15 21 38 20 53 -1 23 -2 23 -9 -7 -11 -47 -36 -70 -83 -77 -82 -13 -82 -13 -28 -61 70 -63 85 -99 77 -193 -3 -42 -9 -92 -12 -111 -5 -32 -3 -37 28 -53 26 -14 40 -15 68 -7 85 25 161 2 199 -60 l18 -31 8 63 c5 35 7 67 6 72 -4 18 23 36 54 36 33 0 61 -21 51 -39 -3 -5 0 -21 8 -35 l14 -27 4 25 c3 14 1 23 -3 20 -17 -10 -9 16 11 36 31 31 92 26 170 -12 36 -18 69 -34 74 -36 4 -3 -13 21 -38 52 -25 31 -48 69 -52 84 -3 15 -7 33 -10 40 -4 13 10 44 35 75 21 25 3 21 -20 -5 l-20 -23 11 22 c6 13 20 28 31 34 15 8 19 8 15 0 -10 -15 5 -13 26 3 10 7 15 16 11 20 -4 4 1 4 11 0 11 -4 17 -3 14 2 -4 5 13 10 35 11 23 1 53 6 67 11 22 9 18 11 -40 22 -55 11 -72 20 -107 55 -41 40 -43 45 -43 101 1 73 29 146 101 255 28 44 50 81 48 83 -2 2 -35 -23 -73 -55z m-381 -69 c-3 -5 -16 -10 -28 -9 -21 0 -21 1 -2 9 28 12 37 12 30 0z m-10 -175 c25 -9 43 -11 49 -5 14 14 103 12 112 -1 4 -7 8 -73 10 -148 2 -75 6 -152 9 -172 8 -49 -12 -69 -71 -69 -81 0 -82 2 -76 138 4 103 2 120 -13 135 -34 35 -40 16 -38 -126 2 -156 5 -151 -93 -145 l-49 3 -2 160 c-3 180 2 200 57 227 42 21 53 22 105 3z"/>
 <path d="M1197 1253 c-4 -3 -7 -69 -7 -145 l0 -139 28 3 27 3 3 93 c3 94 14 130 51 158 15 12 7 34 -12 34 -8 0 -7 -3 2 -9 11 -7 11 -10 -1 -17 -32 -19 -48 -75 -48 -166 0 -82 -1 -88 -21 -88 -20 0 -20 4 -17 140 2 77 3 140 2 140 0 0 -4 -3 -7 -7z"/>
 <path d="M1350 1241 c0 -10 7 -35 15 -54 10 -23 15 -69 15 -127 l0 -90 30 0 30 0 0 145 0 145 -45 0 c-37 0 -45 -3 -45 -19z m80 -126 c0 -128 -1 -135 -20 -135 -18 0 -20 7 -20 89 0 53 -6 105 -15 131 -8 23 -15 44 -15 46 0 2 16 4 35 4 l35 0 0 -135z"/>
 <path d="M1653 1275 c0 -22 2 -30 4 -17 2 12 2 30 0 40 -3 9 -5 -1 -4 -23z"/>
 <path d="M377 1233 c-3 -5 18 -7 46 -5 92 5 104 9 30 11 -39 0 -74 -2 -76 -6z"/>
 <path d="M905 1230 l-80 -6 77 -2 c43 -1 80 2 83 8 3 6 5 9 3 8 -2 -1 -39 -5 -83 -8z"/>
 <path d="M2023 1185 c0 -33 2 -45 4 -27 2 18 2 45 0 60 -2 15 -4 0 -4 -33z"/>
 <path d="M2399 1147 c5 -5 26 -7 47 -5 l39 3 -47 5 c-26 3 -43 1 -39 -3z"/>
 <path d="M683 1100 c0 -30 2 -43 4 -27 2 15 2 39 0 55 -2 15 -4 2 -4 -28z"/>
 <path d="M857 1089 c7 -9 11 -18 8 -21 -3 -2 7 -15 23 -29 l27 -24 -23 26 c-12 14 -20 28 -17 31 3 3 -3 11 -12 19 -16 12 -17 12 -6 -2z"/>
 <path d="M2022 958 c1 -116 5 -102 10 35 2 42 0 77 -4 77 -5 0 -7 -51 -6 -112z"/>
 <path d="M2328 1063 c12 -2 32 -2 45 0 12 2 2 4 -23 4 -25 0 -35 -2 -22 -4z"/>
 <path d="M1647 993 c-10 -9 -9 -73 1 -73 4 0 7 18 7 40 0 22 0 40 -1 40 0 0 -4 -3 -7 -7z"/>
 <path d="M2089 967 c5 -5 28 -7 52 -5 l44 3 -52 5 c-29 3 -48 1 -44 -3z"/>
 <path d="M1823 963 c15 -2 37 -2 50 0 12 2 0 4 -28 4 -27 0 -38 -2 -22 -4z"/>
 <path d="M1708 823 c6 -11 81 -87 166 -168 86 -81 153 -152 149 -158 -4 -6 -1 -7 7 -2 8 5 -14 33 -76 94 -49 47 -126 124 -172 170 -47 46 -79 75 -74 64z"/>
 <path d="M886 762 c-24 -47 -131 -188 -264 -347 -131 -156 -167 -202 -119 -151 54 58 252 298 308 372 56 76 105 154 95 154 -3 0 -12 -13 -20 -28z"/>
 <path d="M1444 774 c-19 -15 -19 -15 1 -6 11 5 27 12 35 15 13 5 13 6 -1 6 -8 1 -24 -6 -35 -15z"/>
 <path d="M1343 766 c8 -8 19 -42 26 -75 7 -33 16 -63 21 -66 5 -3 5 9 -1 27 -11 41 -11 41 1 33 16 -10 12 5 -11 41 -11 19 -16 34 -10 34 6 0 11 5 11 10 0 6 -12 10 -26 10 -22 0 -24 -2 -11 -14z"/>
 <path d="M1422 588 c3 -7 13 -37 23 -67 9 -29 24 -65 32 -80 l15 -26 -6 25 c-3 14 -6 36 -6 50 0 16 -3 21 -8 12 -5 -8 -14 7 -26 43 -9 30 -20 55 -23 55 -3 0 -3 -6 -1 -12z"/>
 <path d="M1353 525 c0 -27 2 -38 4 -22 2 15 2 37 0 50 -2 12 -4 0 -4 -28z"/>
 <path d="M1871 553 c6 -17 209 -166 216 -159 4 4 -6 16 -22 29 -16 12 -42 34 -56 50 -15 15 -35 27 -44 27 -9 0 -35 14 -58 32 -22 18 -38 27 -36 21z"/>
 <path d="M1936 529 c9 -10 22 -15 30 -12 19 7 9 20 -21 25 -24 5 -25 4 -9 -13z"/>
 <path d="M769 463 l-34 -38 38 34 c20 19 37 36 37 38 0 8 -8 0 -41 -34z"/>
 <path d="M1283 455 c5 -18 20 -99 21 -117 1 -3 5 -10 10 -15 5 -4 6 5 3 22 -14 74 -25 116 -32 123 -4 4 -5 -2 -2 -13z"/>
 <path d="M665 368 l-60 -63 63 60 c34 33 62 61 62 62 0 8 -10 -1 -65 -59z"/>
 <path d="M516 235 c-39 -35 -73 -63 -77 -62 -7 2 -99 -91 -99 -100 0 -12 48 27 145 121 121 115 141 143 31 41z"/>
 </g>
<g id="layer109" fill="#f1dfea" stroke="none">
 <path d="M1441 2028 c-7 -35 -15 -71 -18 -82 -3 -10 -1 -16 4 -13 11 7 38 145 30 153 -2 3 -10 -24 -16 -58z"/>
 <path d="M2144 2058 c-19 -22 -48 -78 -40 -78 3 0 18 23 35 50 34 55 35 62 5 28z"/>
 <path d="M1021 2045 c0 -11 8 -54 18 -95 18 -71 19 -72 16 -25 -3 50 -33 157 -34 120z"/>
 <path d="M1522 1950 c-5 -23 -6 -40 -1 -40 5 0 9 11 9 24 0 14 5 28 10 31 12 8 13 25 1 25 -5 0 -13 -18 -19 -40z"/>
 <path d="M1869 1783 c-208 -211 -229 -231 -281 -263 -18 -11 -28 -20 -22 -20 25 0 135 94 259 221 189 195 250 259 244 259 -2 0 -92 -89 -200 -197z"/>
 <path d="M1999 1853 c-23 -32 -36 -53 -28 -46 17 14 83 103 76 103 -3 0 -24 -26 -48 -57z"/>
 <path d="M930 1835 c0 -12 50 -147 59 -157 4 -4 7 1 7 12 0 11 -3 20 -6 20 -4 0 -7 6 -7 13 0 15 -52 126 -53 112z"/>
 <path d="M600 1760 c57 -72 65 -80 50 -50 -8 14 -31 43 -53 65 l-40 40 43 -55z"/>
 <path d="M1881 1698 c-130 -176 -221 -327 -221 -368 0 -8 11 10 23 41 32 77 128 221 270 407 5 6 7 12 3 12 -3 0 -37 -42 -75 -92z"/>
 <path d="M680 1695 c0 -5 10 -19 22 -32 12 -13 16 -23 9 -23 -7 0 -9 -5 -5 -11 5 -8 10 -6 17 6 7 13 3 23 -17 43 -14 15 -26 22 -26 17z"/>
 <path d="M1196 1670 c10 -41 58 -123 74 -128 10 -4 9 1 -4 14 -11 10 -32 46 -48 79 -16 33 -26 49 -22 35z"/>
 <path d="M820 1626 c58 -63 210 -196 222 -196 5 0 -12 17 -39 38 -26 21 -88 76 -138 122 -49 46 -70 62 -45 36z"/>
 <path d="M740 1654 c0 -5 7 -18 15 -28 12 -16 15 -17 15 -4 0 8 -7 21 -15 28 -8 7 -15 9 -15 4z"/>
 <path d="M1503 1575 c0 -22 2 -30 4 -17 2 12 2 30 0 40 -3 9 -5 -1 -4 -23z"/>
 <path d="M1171 1518 c-1 -9 4 -40 10 -68 8 -39 8 -54 -1 -65 -14 -17 -50 -20 -50 -5 0 6 -4 10 -10 10 -5 0 -10 -11 -10 -25 0 -38 -33 -50 -78 -29 -20 9 -40 19 -45 21 -4 2 4 -17 18 -43 44 -82 27 -167 -33 -170 -9 0 -41 -4 -70 -8 l-52 -9 40 -29 c57 -43 91 -105 97 -180 5 -65 22 -118 36 -118 5 0 27 -13 50 -29 23 -16 58 -32 77 -36 45 -9 97 -41 112 -68 11 -20 14 -13 23 53 l10 75 50 0 c48 0 50 -1 53 -29 l4 -29 12 24 c26 54 85 58 184 14 28 -13 52 -22 52 -20 0 3 -15 24 -33 48 -19 24 -39 65 -46 90 -16 57 -2 91 52 126 46 30 51 71 13 106 -14 13 -26 22 -28 20 -2 -2 -4 11 -5 28 -1 17 -8 34 -14 38 -19 11 18 129 67 216 24 42 41 80 38 85 -3 5 -24 -6 -47 -25 -49 -39 -133 -87 -153 -87 -23 0 -54 38 -54 66 0 32 -17 23 -25 -15 -7 -33 -23 -42 -54 -34 -16 4 -21 13 -21 36 l0 30 -23 -21 c-44 -42 -101 -27 -127 32 -10 23 -19 33 -19 24z m127 -236 c1 -4 29 -4 62 2 43 7 66 6 85 -2 24 -11 25 -15 23 -89 -1 -43 -1 -124 1 -181 2 -70 -1 -107 -9 -117 -9 -10 -32 -15 -76 -15 -58 0 -65 2 -73 23 -8 22 -6 103 5 182 6 46 -13 82 -39 72 -13 -5 -15 -14 -11 -39 14 -72 16 -209 4 -224 -9 -10 -34 -14 -81 -14 -65 0 -69 1 -75 26 -11 42 1 307 15 332 22 41 70 64 121 57 25 -3 46 -9 48 -13z"/>
 <path d="M1354 1247 c-2 -7 2 -32 11 -56 9 -27 15 -78 15 -132 l0 -89 28 1 c23 2 24 2 5 6 -22 4 -23 9 -23 92 0 53 -6 106 -15 131 -8 23 -15 44 -15 46 0 1 17 5 38 7 l37 4 -38 1 c-23 1 -40 -3 -43 -11z"/>
 <path d="M1190 1110 l0 -140 28 1 c24 2 24 2 4 6 -23 4 -23 6 -20 139 2 74 0 134 -4 134 -5 0 -8 -63 -8 -140z"/>
 <path d="M1276 1224 c-9 -8 -16 -20 -16 -27 0 -6 5 -5 13 4 6 8 19 20 27 27 8 7 9 12 3 12 -6 0 -19 -7 -27 -16z"/>
 <path d="M1653 1275 c0 -22 2 -30 4 -17 2 12 2 30 0 40 -3 9 -5 -1 -4 -23z"/>
 <path d="M905 1230 l-80 -6 77 -2 c43 -1 80 2 83 8 3 6 5 9 3 8 -2 -1 -39 -5 -83 -8z"/>
 <path d="M2023 1185 c0 -33 2 -45 4 -27 2 18 2 45 0 60 -2 15 -4 0 -4 -33z"/>
 <path d="M683 1105 c0 -22 2 -30 4 -17 2 12 2 30 0 40 -3 9 -5 -1 -4 -23z"/>
 <path d="M2024 1057 c-2 -7 -3 -58 -2 -113 l3 -99 5 113 c3 61 4 112 2 112 -1 0 -5 -6 -8 -13z"/>
 <path d="M2328 1063 c12 -2 32 -2 45 0 12 2 2 4 -23 4 -25 0 -35 -2 -22 -4z"/>
 <path d="M1640 955 c0 -19 4 -35 8 -35 4 0 6 16 4 35 -2 19 -6 35 -8 35 -2 0 -4 -16 -4 -35z"/>
 <path d="M1823 963 c15 -2 37 -2 50 0 12 2 0 4 -28 4 -27 0 -38 -2 -22 -4z"/>
 <path d="M2113 963 c15 -2 37 -2 50 0 12 2 0 4 -28 4 -27 0 -38 -2 -22 -4z"/>
 <path d="M1708 823 c6 -11 81 -87 166 -168 86 -81 153 -152 149 -158 -4 -6 -1 -7 7 -2 8 5 -14 33 -76 94 -49 47 -126 124 -172 170 -47 46 -79 75 -74 64z"/>
 <path d="M816 659 c-46 -63 -228 -288 -334 -411 -8 -10 -13 -18 -10 -18 13 0 357 420 391 479 30 52 15 35 -47 -50z"/>
 <path d="M1370 697 c0 -8 6 -14 14 -14 8 0 12 6 9 14 -3 7 -9 13 -14 13 -5 0 -9 -6 -9 -13z"/>
 <path d="M1377 650 c8 -30 21 -34 15 -5 -2 14 -8 25 -12 25 -5 0 -6 -9 -3 -20z"/>
 <path d="M1353 525 c0 -27 2 -38 4 -22 2 15 2 37 0 50 -2 12 -4 0 -4 -28z"/>
 <path d="M1940 532 c0 -14 11 -21 26 -15 8 3 11 9 8 14 -7 11 -34 12 -34 1z"/>
 <path d="M1457 482 c4 -9 13 -28 21 -42 l14 -25 -6 25 c-3 14 -6 30 -6 36 0 7 -7 14 -14 17 -11 4 -13 1 -9 -11z"/>
 <path d="M2040 419 c34 -29 50 -36 50 -21 0 11 -49 46 -68 48 -10 2 -3 -9 18 -27z"/>
 <path d="M639 343 l-34 -38 38 34 c20 19 37 36 37 38 0 8 -8 0 -41 -34z"/>
 <path d="M1303 350 c5 -31 17 -36 17 -7 0 15 -4 27 -10 27 -5 0 -9 -9 -7 -20z"/>
 <path d="M464 178 l-29 -33 33 29 c17 17 32 31 32 33 0 8 -8 1 -36 -29z"/>
 <path d="M373 106 c1 -6 -3 -10 -10 -9 -6 1 -14 -4 -17 -13 -4 -11 -2 -12 13 -5 28 15 44 38 26 38 -7 0 -13 -5 -12 -11z"/>
 </g>

</svg>